<svg height="14" width="14" xmlns="http://www.w3.org/2000/svg"><g fill="none" stroke="#000" stroke-linecap="round" stroke-linejoin="round" stroke-width="1.167"><path d="m8.75 7a1.75 1.75 0 1 1 -1.75-1.75 1.75 1.75 0 0 1 1.75 1.75z"/><path d="m11.317 8.75a.962.962 0 0 0 .193 1.062l.035.035a1.167 1.167 0 1 1 -1.652 1.653l-.035-.035a.97.97 0 0 0 -1.645.688v.1a1.167 1.167 0 1 1 -2.333 0v-.053a.963.963 0 0 0 -.63-.881.962.962 0 0 0 -1.062.193l-.035.035a1.167 1.167 0 1 1 -1.653-1.654l.035-.035a.97.97 0 0 0 -.688-1.645h-.1a1.167 1.167 0 1 1 0-2.333h.053a.963.963 0 0 0 .881-.63.963.963 0 0 0 -.193-1.062l-.035-.035a1.167 1.167 0 1 1 1.654-1.653l.035.035a.962.962 0 0 0 1.058.195h.05a.962.962 0 0 0 .583-.881v-.1a1.167 1.167 0 1 1 2.333 0v.051a.97.97 0 0 0 1.645.688l.035-.035a1.167 1.167 0 1 1 1.654 1.654l-.035.035a.963.963 0 0 0 -.195 1.058v.05a.962.962 0 0 0 .881.583h.1a1.167 1.167 0 1 1 0 2.333h-.051a.963.963 0 0 0 -.883.584z"/></g></svg>